<?xml version="1.0" encoding="UTF-8"?>
<svg width="24px" height="24px" viewBox="0 0 24 24" version="1.1" xmlns="http://www.w3.org/2000/svg" xmlns:xlink="http://www.w3.org/1999/xlink">
    <title>切片</title>
    <g id="页面整理" stroke="none" stroke-width="1" fill="none" fill-rule="evenodd">
        <g id="解释页icon+tab栏icon" transform="translate(-208.000000, -277.000000)">
            <g id="全局/发音" transform="translate(208.000000, 277.000000)">
                <rect id="矩形" x="0" y="0" width="24" height="24"></rect>
                <g id="编组" transform="translate(2.750000, 3.500000)" stroke="#202124" stroke-linejoin="round" stroke-width="2">
                    <g id="编组-2" transform="translate(12.871028, 1.942857)" fill-rule="nonzero" stroke-linecap="round">
                        <path d="M0,9.83571429 C0.691597095,8.94737397 1.23407776,7.77610767 1.23598758,6.5585802 C1.23444164,5.34011493 0.691952386,4.16779508 0,3.27857143" id="路径"></path>
                        <path d="M3.32559497,13.1142857 C4.70878916,11.3376051 5.62515216,8.99507248 5.62897181,6.56001754 C5.62587994,4.12308701 4.70949974,1.7784473 3.32559497,0" id="路径备份"></path>
                    </g>
                    <path d="M1.2,4.0375 L2.41597662,4.0375 C2.7991362,4.0375 3.17423179,3.9274366 3.49664199,3.72040296 L7.13390045,1.38476069 C7.7845096,0.966976192 8.65061378,1.15571786 9.06839828,1.806327 C9.21332183,2.03201414 9.29036621,2.29458106 9.29036621,2.56279276 L9.29036621,14.4372072 C9.29036621,15.2104059 8.66356486,15.8372072 7.89036621,15.8372072 C7.6221545,15.8372072 7.35958759,15.7601629 7.13390045,15.6152393 L3.49664199,13.279597 C3.17423179,13.0725634 2.7991362,12.9625 2.41597662,12.9625 L1.2,12.9625 C0.5372583,12.9625 7.42067159e-16,12.4252417 0,11.7625 L0,5.2375 C-8.91839931e-16,4.5747583 0.5372583,4.0375 1.2,4.0375 Z" id="矩形"></path>
                </g>
            </g>
        </g>
    </g>
</svg>